<?xml version="1.0" standalone="no"?>
<!DOCTYPE svg PUBLIC "-//W3C//DTD SVG 20010904//EN"
 "http://www.w3.org/TR/2001/REC-SVG-20010904/DTD/svg10.dtd">
<svg version="1.0" xmlns="http://www.w3.org/2000/svg"
 width="310.000000pt" height="310.000000pt" viewBox="0 0 310.000000 310.000000"
 preserveAspectRatio="xMidYMid meet">
<metadata>
Created by potrace 1.11, written by Peter Selinger 2001-2013
</metadata>
<g transform="translate(0.000000,310.000000) scale(0.100000,-0.100000)"
fill="#000000" stroke="none">
<path d="M1315 3034 c-310 -56 -563 -185 -789 -403 -254 -247 -406 -545 -451
-888 -44 -332 28 -675 203 -966 29 -49 51 -91 49 -93 -4 -5 -82 116 -112 172
-8 16 -15 24 -15 17 0 -7 25 -54 56 -105 239 -395 643 -660 1111 -728 168 -24
422 -7 598 40 348 94 674 329 877 635 94 143 183 351 217 510 19 88 41 257 41
312 0 51 -4 84 -31 273 -10 70 -56 241 -82 304 -23 56 -108 219 -127 244 -23
28 -27 17 -5 -12 8 -11 15 -24 15 -30 0 -6 -16 14 -36 44 -109 166 -286 343
-449 448 -179 115 -369 190 -579 227 -112 19 -380 19 -491 -1z m298 -241 c5
-8 30 -13 63 -13 30 0 54 -3 54 -8 0 -4 -16 -16 -35 -26 -54 -29 -57 -36 -39
-95 8 -29 13 -56 10 -59 -3 -3 -24 9 -45 26 -22 18 -43 32 -46 32 -4 0 -27
-14 -51 -31 -25 -17 -48 -29 -51 -26 -3 3 3 29 12 58 20 59 25 48 -51 106
l-29 22 56 0 c61 1 73 9 85 56 4 17 11 39 17 50 9 17 12 13 26 -30 9 -28 20
-56 24 -62z m778 -25 c133 -88 317 -273 400 -403 64 -99 134 -234 150 -289 11
-39 -12 -91 -50 -110 -65 -34 -141 -14 -265 68 -113 76 -184 141 -170 156 8 8
37 -8 110 -63 129 -97 189 -127 254 -127 45 0 52 3 69 31 18 29 18 33 3 72
-26 68 -89 184 -149 276 -70 107 -278 316 -383 386 -93 61 -98 65 -79 65 9 0
58 -28 110 -62z m-1382 -83 l17 -50 60 -5 59 -5 -47 -34 c-27 -19 -48 -36 -48
-39 0 -2 8 -26 17 -53 10 -26 14 -51 11 -55 -4 -3 -25 8 -46 25 -22 17 -44 31
-49 31 -5 0 -27 -13 -49 -30 -57 -43 -65 -39 -41 27 l21 57 -28 20 c-76 55
-76 55 -26 57 81 4 83 5 100 64 7 25 17 44 22 43 6 -2 18 -26 27 -53z m1146 9
c15 -60 21 -64 83 -64 l57 -1 -23 -19 c-13 -11 -35 -28 -49 -38 l-26 -19 18
-51 c10 -28 16 -54 12 -58 -3 -4 -24 8 -45 25 -22 17 -44 31 -49 31 -6 0 -29
-14 -52 -31 -24 -17 -45 -28 -48 -25 -3 2 3 28 13 58 l17 52 -28 21 c-76 55
-76 54 -14 55 64 0 72 6 89 68 13 52 30 50 45 -4z m329 -313 c11 -18 -25 -33
-96 -41 -82 -10 -116 -20 -157 -51 -27 -20 -32 -20 -187 -8 -232 17 -555 15
-689 -6 -135 -20 -346 -88 -377 -120 -13 -13 -30 -43 -38 -67 -15 -42 -18 -43
-125 -88 -128 -54 -183 -81 -245 -123 -62 -41 -120 -98 -120 -117 0 -8 20 -46
44 -85 44 -69 51 -90 21 -65 -24 20 -105 146 -105 164 0 29 82 107 159 152 41
24 129 67 196 95 115 48 122 53 161 107 68 94 191 154 390 189 81 15 151 18
394 17 162 -1 335 -6 385 -12 87 -10 90 -9 118 14 25 21 50 30 122 47 37 9
144 7 149 -2z m-1899 -126 l18 -55 58 0 c33 0 59 -4 59 -9 0 -5 -15 -19 -34
-30 -55 -34 -59 -43 -40 -89 27 -69 16 -79 -38 -36 l-48 37 -44 -37 c-37 -30
-66 -45 -66 -33 0 1 9 27 21 57 l21 55 -39 32 c-21 18 -41 33 -45 33 -5 0 -8
5 -8 10 0 6 26 10 59 10 l59 0 17 55 c10 30 21 55 25 55 5 0 16 -25 25 -55z
m2086 -35 l64 -5 -45 -32 c-25 -18 -50 -37 -57 -43 -9 -7 -22 -2 -46 20 -33
29 -34 30 -23 80 l10 51 17 -33 c16 -31 21 -33 80 -38z m-336 -82 c0 -20 6
-43 13 -49 16 -17 15 -39 -1 -39 -13 0 -46 32 -60 56 -4 7 -2 26 4 43 16 45
44 38 44 -11z m-1091 -57 c3 -4 -6 -13 -20 -20 -31 -14 -260 -15 -269 -1 -8
13 -17 12 125 20 69 3 133 7 142 8 9 1 19 -2 22 -7z m1706 -311 c69 -54 75
-76 75 -255 -1 -171 -14 -259 -62 -405 -36 -110 -115 -271 -181 -369 -67 -100
-256 -301 -283 -301 -11 0 -19 3 -19 8 0 4 48 57 108 117 121 124 203 242 272
389 87 185 131 367 133 551 2 143 -11 191 -74 256 -36 38 -43 48 -26 44 12 -4
38 -19 57 -35z m-211 -80 c7 -25 18 -48 25 -52 6 -4 32 -5 57 -2 26 4 49 2 52
-3 4 -5 -14 -24 -38 -41 -50 -35 -51 -37 -30 -104 8 -27 11 -48 6 -48 -4 0
-26 14 -50 31 -46 35 -56 33 -113 -13 -15 -12 -30 -19 -33 -17 -2 3 3 29 13
58 18 59 22 52 -56 110 l-27 20 55 1 c67 0 74 5 89 55 7 22 15 46 17 54 7 21
19 3 33 -49z m-2231 -189 c12 -36 20 -66 17 -69 -2 -2 -26 12 -52 31 l-48 35
-45 -33 c-24 -18 -48 -32 -51 -29 -4 2 -1 21 7 41 21 61 17 75 -34 113 l-47
35 68 3 c45 2 67 7 67 15 0 7 5 18 11 24 16 16 79 -82 107 -166z m722 79 c71
-24 95 -39 83 -51 -5 -5 -43 3 -86 16 -107 33 -209 40 -375 25 -142 -13 -197
-9 -189 13 5 17 137 25 337 22 138 -3 176 -7 230 -25z m-492 -134 c7 -14 12
-34 10 -42 -2 -10 -12 3 -26 31 -14 30 -18 45 -10 43 7 -3 19 -17 26 -32z
m502 -1 c20 -21 25 -39 28 -95 4 -60 1 -74 -24 -120 -33 -60 -121 -145 -192
-183 l-48 -26 -49 24 c-63 32 -90 33 -81 3 23 -78 18 -138 -10 -138 -14 0 -15
7 -11 37 4 22 0 59 -9 91 -21 72 -12 81 61 58 30 -9 57 -21 60 -26 12 -19 48
-10 94 25 59 43 133 121 157 166 23 44 24 133 1 177 -21 38 -10 42 23 7z m888
-137 c-38 -72 -143 -182 -211 -222 -96 -57 -142 -68 -274 -67 -72 0 -125 -3
-128 -9 -4 -6 -39 -27 -78 -47 -40 -19 -118 -67 -175 -106 l-102 -70 -48 16
-47 16 40 -1 c34 -1 53 8 120 56 44 32 111 76 150 99 38 22 86 51 107 64 34
23 41 24 130 17 100 -7 169 6 249 47 64 32 158 118 227 206 37 46 68 79 70 74
2 -6 -11 -39 -30 -73z m457 -203 l16 -55 59 0 c33 0 60 -4 60 -10 0 -5 -3 -10
-7 -10 -5 0 -25 -15 -45 -33 l-38 -32 16 -48 c9 -26 14 -50 11 -53 -3 -3 -26
8 -51 26 l-46 31 -45 -32 c-25 -18 -47 -30 -50 -27 -3 3 2 24 10 48 21 59 20
61 -30 95 -24 17 -45 33 -45 38 0 4 27 7 59 7 l60 0 17 55 c10 30 21 55 25 55
4 0 15 -25 24 -55z m-1996 -5 l13 -50 59 0 c32 0 59 -4 59 -9 0 -6 -17 -23
-37 -38 -52 -39 -53 -39 -32 -93 10 -26 15 -50 12 -54 -3 -3 -24 8 -46 24 -23
17 -46 30 -52 30 -6 0 -30 -14 -53 -31 -47 -35 -52 -28 -30 44 12 39 12 40
-30 76 -23 20 -42 39 -42 44 0 4 27 7 59 7 l59 0 13 50 c7 28 18 50 24 50 6 0
17 -22 24 -50z m420 -420 l16 -45 60 -5 60 -5 -47 -34 c-27 -19 -48 -36 -48
-38 0 -2 7 -27 16 -54 9 -27 14 -52 11 -56 -3 -3 -25 9 -47 27 -45 36 -55 35
-112 -12 -15 -12 -30 -19 -33 -16 -3 2 2 27 10 54 8 27 15 52 15 56 0 4 -21
21 -46 38 -25 18 -43 35 -39 38 3 3 27 5 53 3 54 -3 63 4 82 62 15 47 28 44
49 -13z m1021 -65 c16 -19 0 -19 -26 0 -16 12 -16 14 -3 15 9 0 22 -7 29 -15z
m148 -124 c32 -69 41 -165 19 -207 -27 -51 -62 -74 -173 -114 -179 -63 -253
-74 -464 -75 -209 0 -296 14 -464 72 -170 59 -353 163 -464 264 -69 63 -57 62
32 -3 304 -224 658 -329 1004 -298 151 13 340 62 441 114 36 19 70 82 71 132
0 42 -27 129 -59 189 -37 72 -38 75 -1 26 18 -25 44 -70 58 -100z m-588 57
c20 -63 26 -68 86 -68 61 0 67 -8 26 -32 -15 -9 -35 -25 -45 -36 -16 -17 -16
-22 -1 -66 9 -26 14 -50 11 -53 -3 -3 -26 10 -51 27 l-46 33 -46 -36 c-26 -21
-49 -35 -51 -33 -3 2 4 30 13 62 l19 57 -25 16 c-13 9 -36 26 -50 38 l-25 22
56 1 c63 0 71 6 90 68 6 23 15 42 19 42 4 0 13 -19 20 -42z m520 -50 c0 -9
-52 -58 -62 -58 -8 0 5 48 22 79 11 22 12 22 25 4 8 -10 15 -21 15 -25z"/>
</g>
</svg>
